Coordinates
version=1
nRows=29
nColumns=22
inDegrees=yes

Units are S.I. units (second, meters, Newtons, ...)
If the header above contains a line with 'inDegrees', this indicates whether rotational values are in degrees (yes) or radians (no).

endheader
time	pelvis_tilt	pelvis_list	pelvis_rotation	pelvis_tx	pelvis_ty	pelvis_tz	hip_flexion_r	hip_adduction_r	hip_rotation_r	knee_angle_r	ankle_angle_r	subtalar_angle_r	hip_flexion_l	hip_adduction_l	hip_rotation_l	knee_angle_l	ankle_angle_l	subtalar_angle_l	lumbar_extension	lumbar_bending	lumbar_rotation
      3.85000000	      2.55183339	      2.57514289	     84.87720981	      0.83081041	      1.06606089	      0.15035096	     15.22683903	      2.11358657	      3.40600863	    -17.92085603	      3.75914046	      1.21282509	     -6.91837226	      0.57008036	     12.14435834	    -28.86093646	     13.55098069	      2.11267125	     -2.50613793	      0.46483716	    -10.44807951
      3.86000000	      2.70053595	      2.66520322	     85.43883050	      0.83335183	      1.06705199	      0.14396674	     14.66764527	      2.29312839	      2.97612486	    -17.85289348	      3.94550148	      0.87407711	     -6.41569856	      0.28330191	     12.19747458	    -30.42473900	     12.46923107	      3.32968667	     -2.55660202	      0.62535580	    -10.42413657
      3.87000000	      2.84902365	      2.78012624	     85.96622162	      0.83588881	      1.06801916	      0.13765954	     14.06811956	      2.47423465	      2.49864639	    -17.74019469	      4.14029762	      0.56046390	     -5.90232762	     -0.00652946	     12.19055809	    -32.01445045	     11.31060848	      4.56190156	     -2.63966276	      0.78303484	    -10.34398983
      3.88000000	      2.98559141	      2.91051801	     86.44020361	      0.83846820	      1.06895449	      0.13147163	     13.44114069	      2.65370797	      2.02422835	    -17.57651403	      4.28705855	      0.27568083	     -5.36740730	     -0.29153857	     12.10139623	    -33.62534201	     10.06825957	      5.82480950	     -2.74962415	      0.91965562	    -10.19848946
      3.89000000	      3.11573062	      3.05028692	     86.85968426	      0.84105961	      1.06983024	      0.12538949	     12.80289473	      2.83516131	      1.55339409	    -17.38455375	      4.42317027	      0.02738250	     -4.80676196	     -0.57695553	     11.93422146	    -35.25631011	      8.75927755	      7.06978967	     -2.87617360	      1.05125020	     -9.99571185
      3.90000000	      3.25042180	      3.19974480	     87.24402875	      0.84365589	      1.07063538	      0.11945281	     12.16832285	      3.02985033	      1.09043102	    -17.19445421	      4.55272983	     -0.18318411	     -4.21191474	     -0.87743872	     11.71817957	    -36.91867780	      7.40740650	      8.24241508	     -3.02552143	      1.18589006	     -9.76602088
      3.91000000	      3.38782094	      3.35408316	     87.59019924	      0.84623065	      1.07136380	      0.11364792	     11.54168699	      3.23483569	      0.64620195	    -17.00510948	      4.68868538	     -0.36040529	     -3.58098024	     -1.18706143	     11.46583001	    -38.60794111	      6.02671355	      9.31000112	     -3.18938104	      1.32642673	     -9.51067264
      3.92000000	      3.51143855	      3.51056129	     87.89934799	      0.84878873	      1.07202607	      0.10796786	     10.92655228	      3.43520837	      0.24716391	    -16.82055770	      4.84387855	     -0.51509947	     -2.91707245	     -1.48745070	     11.19224171	    -40.30880974	      4.62219842	     10.28146237	     -3.36055494	      1.45132734	     -9.22705859
      3.93000000	      3.66061970	      3.67107382	     88.20491369	      0.85125566	      1.07260578	      0.10244338	     10.32857802	      3.66367718	     -0.16015603	    -16.65454808	      5.00708711	     -0.65111270	     -2.20988720	     -1.81486992	     10.94273919	    -42.04566794	      3.24066224	     11.04546977	     -3.54791343	      1.61289840	     -8.96489720
      3.94000000	      3.78805474	      3.83451384	     88.48769915	      0.85366312	      1.07314546	      0.09706396	      9.73697949	      3.87750297	     -0.51365418	    -16.48354243	      5.15206722	     -0.76337755	     -1.47425007	     -2.11325606	     10.70904137	    -43.78405373	      1.83501969	     11.60639244	     -3.74595173	      1.75110161	     -8.70904487
      3.95000000	      3.91827653	      3.98713212	     88.75887743	      0.85598137	      1.07359927	      0.09183604	      9.18232080	      4.09816813	     -0.86387250	    -16.34076879	      5.36661107	     -0.92915203	     -0.69875781	     -2.39947502	     10.52774714	    -45.52800504	      0.48837519	     12.20860771	     -3.93972992	      1.89723738	     -8.43515250
      3.96000000	      4.02736121	      4.14470996	     89.02570358	      0.85821033	      1.07405193	      0.08673955	      8.62107024	      4.30208876	     -1.17402382	    -16.17619135	      5.52924104	     -1.06644461	      0.08969186	     -2.65228411	     10.37297794	    -47.24606667	     -0.86925656	     12.64126141	     -4.14228124	      2.02126959	     -8.18981798
      3.97000000	      4.13650269	      4.28276839	     89.29752736	      0.86034310	      1.07444861	      0.08177862	      8.08853055	      4.50936548	     -1.48850324	    -16.00804747	      5.71717973	     -1.25047321	      0.91582914	     -2.89157304	     10.26032995	    -48.93951355	     -2.16030622	     13.09864697	     -4.32533905	      2.14647261	     -7.94222694
      3.98000000	      4.23323361	      4.41801017	     89.56873921	      0.86240436	      1.07484661	      0.07694590	      7.55580482	      4.70867203	     -1.78363039	    -15.81637703	      5.87825957	     -1.42243506	      1.75010268	     -3.10979868	     10.16364680	    -50.57846348	     -3.38991478	     13.51149585	     -4.50739685	      2.25517537	     -7.70496306
      3.99000000	      4.32165968	      4.54073900	     89.83948777	      0.86441359	      1.07522924	      0.07224131	      7.03622940	      4.90431790	     -2.06945192	    -15.60760237	      6.03048331	     -1.60038987	      2.59985625	     -3.32086658	     10.06448504	    -52.15034177	     -4.49879336	     13.90282946	     -4.67694515	      2.35058153	     -7.48058752
      4.00000000	      4.40592551	      4.66560541	     90.11271250	      0.86637642	      1.07565289	      0.06762178	      6.49544807	      5.10056784	     -2.34837239	    -15.34973301	      6.14097800	     -1.72696082	      3.43301371	     -3.53009513	      9.96950026	    -53.61893880	     -5.47124956	     14.17011690	     -4.84309034	      2.43357520	     -7.24288425
      4.01000000	      4.49811641	      4.76704560	     90.38847120	      0.86831646	      1.07604185	      0.06312202	      5.98277027	      5.31052657	     -2.62888370	    -15.08176129	      6.26135729	     -1.87218032	      4.28762542	     -3.76556454	      9.85576937	    -54.99172155	     -6.20813847	     14.34712176	     -4.98278621	      2.52085785	     -7.02135949
      4.02000000	      4.59289327	      4.85255620	     90.66057040	      0.87026180	      1.07643389	      0.05871448	      5.48089717	      5.53018539	     -2.90007042	    -14.78763901	      6.36022895	     -2.00620840	      5.14362427	     -4.02596254	      9.71743031	    -56.23791729	     -6.69463094	     14.35304403	     -5.09967841	      2.60043645	     -6.79292475
      4.03000000	      4.70299856	      4.91008459	     90.92822305	      0.87221438	      1.07680135	      0.05439923	      5.00919912	      5.77285232	     -3.15894858	    -14.47826005	      6.43913838	     -2.14656907	      6.01397731	     -4.32711723	      9.55333928	    -57.35224514	     -6.89885592	     14.10820411	     -5.18170412	      2.68684570	     -6.55985136
      4.04000000	      4.78483522	      4.92184000	     91.17197712	      0.87418485	      1.07711921	      0.05018761	      4.60266565	      5.99178376	     -3.37433308	    -14.18680950	      6.54565654	     -2.32327337	      6.90760487	     -4.61938704	      9.33612488	    -58.31531195	     -6.87505637	     13.38867038	     -5.20949241	      2.73262395	     -6.30352789
      4.05000000	      4.88396259	      4.94746342	     91.40246371	      0.87616800	      1.07748485	      0.04602492	      4.17725295	      6.23567168	     -3.57164119	    -13.87547592	      6.60810847	     -2.43616342	      7.75261111	     -4.95923721	      9.08531320	    -59.11549202	     -6.55922029	     12.55157418	     -5.24761088	      2.78955735	     -6.04211555
      4.06000000	      4.96847611	      4.95148467	     91.61232733	      0.87814561	      1.07783384	      0.04192702	      3.78712686	      6.46754325	     -3.73381359	    -13.57675159	      6.65672993	     -2.54720448	      8.58022612	     -5.30075745	      8.79825822	    -59.74976810	     -5.97473939	     11.53278984	     -5.25716660	      2.82312353	     -5.76915655
      4.07000000	      5.08750935	      4.95567514	     91.79484070	      0.88012732	      1.07817838	      0.03788239	      3.40710013	      6.73989826	     -3.87086814	    -13.28408329	      6.67100587	     -2.63891550	      9.37058354	     -5.69857370	      8.48147127	    -60.22984675	     -5.16445711	     10.55137217	     -5.26359579	      2.89117697	     -5.47023347
      4.08000000	      5.11088497	      4.92852198	     91.96341264	      0.88201964	      1.07849558	      0.03387990	      3.07659110	      6.90545752	     -3.96351998	    -13.02700962	      6.73904809	     -2.75629016	     10.12835688	     -5.98522543	      8.12933946	    -60.52070816	     -4.21438847	      9.21700191	     -5.23101876	      2.85153958	     -5.19737649
      4.09000000	      5.14077503	      4.92061807	     92.10808217	      0.88386193	      1.07882870	      0.02993080	      2.74103419	      7.07564600	     -4.04568216	    -12.79115204	      6.80290685	     -2.85112836	     10.80986208	     -6.27970028	      7.75859811	    -60.64479717	     -3.12186867	      8.03151077	     -5.22295375	      2.82058795	     -4.92007916
      4.10000000	      5.16047878	      4.91848018	     92.23321382	      0.88560641	      1.07914907	      0.02601259	      2.40748308	      7.22952288	     -4.10137444	    -12.56938375	      6.87086424	     -2.94013768	     11.42517331	     -6.54796919	      7.38037786	    -60.61003596	     -1.95140698	      6.88472573	     -5.21812547	      2.78529735	     -4.63887695
      4.11000000	      5.16125507	      4.92816262	     92.34009123	      0.88724800	      1.07946703	      0.02213641	      2.07247218	      7.35640125	     -4.14044291	    -12.36749003	      6.94939108	     -3.02194131	     11.96251780	     -6.77574046	      6.99834933	    -60.41293706	     -0.73910975	      5.83290177	     -5.22779197	      2.73687549	     -4.36032504
      4.12000000	      5.13504153	      4.95126816	     92.43810667	      0.88875770	      1.07978326	      0.01830030	      1.73646427	      7.44577531	     -4.17233682	    -12.19093781	      7.04063995	     -3.09910889	     12.42025261	     -6.94863324	      6.62059466	    -60.05895846	      0.48860586	      4.90033788	     -5.25178824	      2.66859399	     -4.09093172
      4.13000000	      5.09957315	      4.98298794	     92.52500337	      0.89015063	      1.08008448	      0.01452165	      1.40441509	      7.51751854	     -4.19383812	    -12.03499578	      7.14554654	     -3.17118703	     12.80797213	     -7.08462386	      6.25505824	    -59.55967170	      1.71771655	      4.14703877	     -5.28796157	      2.59873629	     -3.80865510
